<svg width="48" height="48" viewBox="0 0 48 48" fill="none" xmlns="http://www.w3.org/2000/svg">
<path d="M25.5 10.5V3H10.5C10.1022 3 9.72064 3.15804 9.43934 3.43934C9.15804 3.72064 9 4.10218 9 4.5V21H39V4.5C39 4.10218 38.842 3.72064 38.5607 3.43934C38.2794 3.15804 37.8978 3 37.5 3H34.5V13.5C34.5 13.8978 34.342 14.2794 34.0607 14.5607C33.7794 14.842 33.3978 15 33 15C32.6022 15 32.2206 14.842 31.9393 14.5607C31.658 14.2794 31.5 13.8978 31.5 13.5V3H28.5V10.5C28.5 10.8978 28.342 11.2794 28.0607 11.5607C27.7794 11.842 27.3978 12 27 12C26.6022 12 26.2206 11.842 25.9393 11.5607C25.658 11.2794 25.5 10.8978 25.5 10.5ZM39 24H9V28.125C9 28.7652 9.1261 29.3991 9.37109 29.9906C9.61608 30.582 9.97517 31.1195 10.4279 31.5721C10.8805 32.0248 11.418 32.3839 12.0094 32.6289C12.6009 32.8739 13.2348 33 13.875 33H19.5V40.5C19.5 41.6935 19.9741 42.8381 20.818 43.682C21.6619 44.5259 22.8065 45 24 45C25.1935 45 26.3381 44.5259 27.182 43.682C28.0259 42.8381 28.5 41.6935 28.5 40.5V33H34.125C34.7652 33 35.3991 32.8739 35.9906 32.6289C36.582 32.3839 37.1195 32.0248 37.5721 31.5721C38.0248 31.1195 38.3839 30.582 38.6289 29.9906C38.8739 29.3991 39 28.7652 39 28.125V24Z" fill="black"/>
</svg>
