<svg width="48" height="48" viewBox="0 0 48 48" fill="none" xmlns="http://www.w3.org/2000/svg">
<path d="M30.3 9.99983H17.9C17.3333 9.99983 16.8587 9.80783 16.476 9.42383C16.0933 9.03983 15.9013 8.56516 15.9 7.99983C15.9 7.43316 16.092 6.9585 16.476 6.57583C16.86 6.19316 17.3347 6.00116 17.9 5.99983H30.3L29.5 5.19983C29.1 4.79983 28.9087 4.33316 28.926 3.79983C28.9433 3.26649 29.1347 2.79983 29.5 2.39983C29.9 1.99983 30.3753 1.79183 30.926 1.77583C31.4767 1.75983 31.9513 1.95116 32.35 2.34983L36.6 6.59983C37 6.99983 37.2 7.46649 37.2 7.99983C37.2 8.53316 37 8.99983 36.6 9.39983L32.4 13.5998C32 13.9998 31.5333 14.1918 31 14.1758C30.4667 14.1598 30 13.9678 29.6 13.5998C29.2 13.1998 28.992 12.7252 28.976 12.1758C28.96 11.6265 29.1513 11.1512 29.55 10.7498L30.3 9.99983ZM15 35.9998C15.8667 35.9998 16.5833 35.7165 17.15 35.1498C17.7167 34.5832 18 33.8665 18 32.9998C18 32.1332 17.7167 31.4165 17.15 30.8498C16.5833 30.2832 15.8667 29.9998 15 29.9998C14.1333 29.9998 13.4167 30.2832 12.85 30.8498C12.2833 31.4165 12 32.1332 12 32.9998C12 33.8665 12.2833 34.5832 12.85 35.1498C13.4167 35.7165 14.1333 35.9998 15 35.9998ZM33 35.9998C33.8667 35.9998 34.5833 35.7165 35.15 35.1498C35.7167 34.5832 36 33.8665 36 32.9998C36 32.1332 35.7167 31.4165 35.15 30.8498C34.5833 30.2832 33.8667 29.9998 33 29.9998C32.1333 29.9998 31.4167 30.2832 30.85 30.8498C30.2833 31.4165 30 32.1332 30 32.9998C30 33.8665 30.2833 34.5832 30.85 35.1498C31.4167 35.7165 32.1333 35.9998 33 35.9998ZM13.7 17.9998L14.5 18.7998C14.9 19.1998 15.092 19.6665 15.076 20.1998C15.06 20.7332 14.868 21.1998 14.5 21.5998C14.1 21.9998 13.6253 22.2085 13.076 22.2258C12.5267 22.2432 12.0513 22.0512 11.65 21.6498L7.4 17.3998C7 16.9998 6.8 16.5332 6.8 15.9998C6.8 15.4665 7 14.9998 7.4 14.5998L11.65 10.3498C12.05 9.94983 12.5253 9.7585 13.076 9.77583C13.6267 9.79316 14.1013 10.0012 14.5 10.3998C14.8667 10.7998 15.0587 11.2665 15.076 11.7998C15.0933 12.3332 14.9013 12.7998 14.5 13.1998L13.7 13.9998H34.25C35.1167 13.9998 35.9 14.2498 36.6 14.7498C37.3 15.2498 37.7833 15.8998 38.05 16.6998L41.8 27.3498C41.8667 27.5498 41.9167 27.7665 41.95 27.9998C41.9833 28.2332 42 28.4665 42 28.6998V42.9998C42 43.8332 41.7087 44.5418 41.126 45.1258C40.5433 45.7098 39.8347 46.0012 39 45.9998C38.1667 45.9998 37.4587 45.7085 36.876 45.1258C36.2933 44.5432 36.0013 43.8345 36 42.9998V41.9998H12V42.9998C12 43.8332 11.7087 44.5418 11.126 45.1258C10.5433 45.7098 9.83467 46.0012 9 45.9998C8.16667 45.9998 7.45867 45.7085 6.876 45.1258C6.29333 44.5432 6.00133 43.8345 6 42.9998V27.9998C6 26.8998 6.392 25.9585 7.176 25.1758C7.96 24.3932 8.90133 24.0012 10 23.9998H36.4L34.3 17.9998H13.7Z" fill="black"/>
</svg>
