<svg width="48" height="48" viewBox="0 0 48 48" fill="none" xmlns="http://www.w3.org/2000/svg">
<path d="M41.92 32.9C41.94 32.6 42 32.3 42 32V33L41.92 32.9ZM22 32C22 33.42 22.3 34.78 22.84 36H12V38C12 39.1 11.1 40 10 40H8C6.9 40 6 39.1 6 38V22L10.16 10C10.56 8.84 11.68 8 13 8H35C36.32 8 37.44 8.84 37.84 10L42 22V32C42 26.48 37.52 22 32 22C26.48 22 22 26.48 22 32ZM16 27C16 25.34 14.66 24 13 24C11.34 24 10 25.34 10 27C10 28.66 11.34 30 13 30C14.66 30 16 28.66 16 27ZM38 20L35 11H13L10 20H38ZM45.74 42.38L37.52 34.16C38.34 32.08 37.88 29.64 36.16 27.94C34.36 26.12 31.66 25.76 29.48 26.76L33.36 30.64L30.66 33.36L26.68 29.46C25.6 31.64 26.1 34.34 27.86 36.16C28.6543 36.9703 29.6681 37.5307 30.7768 37.7724C31.8854 38.014 33.0405 37.9263 34.1 37.52L42.32 45.72C42.68 46.1 43.22 46.1 43.58 45.72L45.66 43.66C46.1 43.3 46.1 42.66 45.74 42.38Z" fill="black"/>
</svg>
